<?xml version="1.0" standalone="no"?>
<!DOCTYPE svg PUBLIC "-//W3C//DTD SVG 20010904//EN"
 "http://www.w3.org/TR/2001/REC-SVG-20010904/DTD/svg10.dtd">
<svg version="1.0" xmlns="http://www.w3.org/2000/svg"
 width="445.000000pt" height="445.000000pt" viewBox="0 0 445.000000 445.000000"
 preserveAspectRatio="xMidYMid meet">

<g transform="translate(0.000000,445.000000) scale(0.100000,-0.100000)"
fill="#000000" stroke="none">
<path d="M2050 4438 c-220 -15 -456 -70 -665 -156 -170 -69 -406 -203 -419
-237 -3 -8 -13 -15 -22 -15 -19 0 -74 -37 -74 -51 0 -5 6 -9 13 -9 6 0 21 -7
31 -15 15 -12 17 -17 7 -29 -7 -8 -10 -20 -6 -26 3 -5 3 -16 -2 -22 -10 -17
-14 -42 -5 -33 4 4 7 12 7 18 0 7 12 11 28 11 22 -1 26 2 22 17 -4 13 -1 19 9
19 9 0 16 -4 16 -10 0 -18 20 -11 48 17 15 16 38 29 51 30 13 1 31 5 40 9 9 4
18 8 21 9 3 1 12 4 20 8 8 3 27 8 42 11 15 4 56 26 91 51 62 43 82 48 70 19
-7 -20 79 -9 90 11 4 8 19 15 32 15 18 0 22 -4 18 -19 -7 -28 7 -31 78 -20 93
15 129 29 130 54 0 11 3 14 6 8 3 -10 13 -9 40 2 19 8 39 13 44 10 4 -3 11 10
14 29 4 19 13 37 21 40 8 3 14 13 14 21 0 11 7 15 23 13 20 -3 22 -8 20 -53
-1 -27 1 -42 3 -32 3 9 10 17 15 17 5 0 9 -8 9 -17 0 -14 2 -15 9 -5 4 8 11
13 15 12 16 -3 39 19 41 41 4 38 4 39 18 39 6 0 23 -16 37 -34 14 -19 28 -32
33 -29 4 2 5 9 2 14 -4 5 6 14 20 19 l27 10 -24 20 -23 19 40 -1 c22 -1 52 2
68 6 19 6 27 5 27 -4 0 -7 -7 -10 -15 -7 -8 4 -17 2 -20 -3 -3 -4 10 -13 29
-20 35 -11 81 -5 104 13 8 6 62 12 120 13 134 3 230 11 245 21 18 11 256 13
263 2 4 -6 11 -6 20 2 8 6 24 12 36 13 102 5 -130 88 -377 135 -94 18 -382 44
-433 40 -9 -1 -73 -6 -142 -11z m-405 -98 c3 -5 1 -10 -4 -10 -6 0 -11 5 -11
10 0 6 2 10 4 10 3 0 8 -4 11 -10z m145 -194 c0 -3 -4 -8 -10 -11 -5 -3 -10
-1 -10 4 0 6 5 11 10 11 6 0 10 -2 10 -4z m-160 -37 c0 -6 -4 -7 -10 -4 -5 3
-10 11 -10 16 0 6 5 7 10 4 6 -3 10 -11 10 -16z m-570 -13 c0 -3 -4 -8 -10
-11 -5 -3 -10 -1 -10 4 0 6 5 11 10 11 6 0 10 -2 10 -4z m-103 -116 c-1 -11
-5 -20 -9 -20 -4 0 -8 9 -8 20 0 11 4 20 9 20 6 0 9 -9 8 -20z m193 10 c0 -5
-2 -10 -4 -10 -3 0 -8 5 -11 10 -3 6 -1 10 4 10 6 0 11 -4 11 -10z"/>
<path d="M3147 4239 c7 -7 15 -10 18 -7 3 3 -2 9 -12 12 -14 6 -15 5 -6 -5z"/>
<path d="M2497 4203 c-18 -17 -5 -33 28 -33 39 0 46 14 16 30 -23 12 -35 13
-44 3z"/>
<path d="M2940 4191 c-14 -4 -47 -21 -74 -40 -61 -43 -122 -61 -202 -61 -101
0 -96 -29 16 -85 81 -41 178 -62 217 -47 16 6 73 13 128 17 118 8 113 8 192
-1 74 -8 74 -15 -8 -78 -59 -46 -59 -46 -104 -35 -61 15 -130 6 -168 -22 -20
-15 -32 -18 -35 -11 -6 20 -106 15 -134 -7 -32 -26 -130 -69 -175 -77 -69 -13
-5 -29 117 -28 123 0 200 10 213 28 6 8 10 7 14 -1 10 -25 208 -3 248 27 6 4
33 7 60 5 87 -3 223 55 225 97 0 3 -25 18 -55 33 -59 27 -72 41 -29 31 14 -4
45 -9 67 -12 23 -3 47 -7 53 -9 5 -1 34 1 62 6 36 7 58 6 73 -1 49 -27 23 1
-63 66 -106 80 -207 144 -228 144 -8 0 -37 9 -65 19 -81 31 -151 43 -204 36
-27 -4 -64 -3 -82 2 -19 5 -45 7 -59 4z"/>
<path d="M3198 4193 c12 -2 30 -2 40 0 9 3 -1 5 -23 4 -22 0 -30 -2 -17 -4z"/>
<path d="M638 3782 c-21 -21 -38 -41 -38 -45 0 -13 56 -7 88 9 36 18 42 48 13
64 -25 13 -20 15 -63 -28z"/>
<path d="M1666 3748 c-10 -6 -53 -10 -95 -10 -51 0 -68 -3 -51 -8 42 -13 134
-10 153 4 11 9 34 12 60 10 32 -3 37 -2 22 5 -27 13 -66 13 -89 -1z"/>
<path d="M1891 3741 c-16 -11 -16 -11 94 -30 33 -6 71 -14 84 -18 39 -10 22
28 -19 43 -41 15 -139 18 -159 5z"/>
<path d="M530 3668 c-51 -61 -129 -166 -162 -217 -21 -34 -25 -48 -17 -58 9
-10 7 -13 -9 -13 -21 0 -39 -17 -29 -26 7 -7 59 26 70 44 6 9 18 11 37 7 31
-7 31 -7 43 60 2 14 8 5 16 -25 7 -25 18 -48 23 -51 5 -4 -16 -17 -47 -30 -38
-15 -62 -33 -75 -55 -28 -45 -26 -51 26 -58 92 -12 169 60 132 124 -16 28 -15
29 13 61 16 19 32 45 35 59 10 45 12 45 27 10 24 -57 29 -100 12 -100 -12 0
-15 -14 -15 -58 0 -46 6 -67 26 -98 25 -39 61 -70 70 -61 3 3 7 21 11 41 4 28
1 42 -19 68 -14 18 -29 44 -33 58 -7 24 -7 24 12 8 30 -27 51 -23 25 5 -26 27
-30 46 -6 26 10 -8 29 -19 43 -26 14 -6 20 -12 14 -12 -7 -1 -13 -5 -13 -11 0
-17 48 -11 91 10 43 23 60 47 39 60 -18 11 -60 -17 -53 -36 6 -16 -12 -20 -22
-4 -3 5 -11 7 -18 4 -7 -2 -24 7 -37 21 -13 14 -20 25 -16 25 12 0 -23 57 -38
63 -17 7 -60 86 -52 95 4 3 20 -7 36 -23 l30 -29 22 21 c15 13 43 23 78 27 89
11 111 17 107 29 -2 8 -42 14 -108 17 -57 3 -112 9 -121 14 -14 6 -18 4 -18
-12 0 -15 -5 -18 -25 -15 -19 4 -28 16 -40 54 -9 27 -20 49 -23 49 -4 0 -23
-19 -42 -42z m-18 -340 c-7 -7 -12 -8 -12 -2 0 14 12 26 19 19 2 -3 -1 -11 -7
-17z"/>
<path d="M2113 3683 c9 -2 23 -2 30 0 6 3 -1 5 -18 5 -16 0 -22 -2 -12 -5z"/>
<path d="M1145 3331 c-52 -23 -101 -80 -115 -132 -7 -26 -10 -113 -8 -235 l3
-192 30 -43 c17 -23 50 -53 74 -66 l44 -23 1045 0 c798 0 1054 3 1086 12 53
16 121 84 135 134 13 47 14 363 2 418 -12 49 -53 92 -116 122 l-50 24 -1045 0
c-989 0 -1047 -1 -1085 -19z m2130 -32 c57 -16 95 -46 116 -93 16 -35 19 -67
19 -208 0 -92 -4 -178 -10 -192 -11 -30 -78 -106 -93 -106 -7 0 5 14 25 30 58
48 68 88 65 285 -2 195 -11 222 -82 259 -40 21 -46 21 -1060 24 -561 2 -1035
0 -1053 -3 -48 -9 -109 -68 -127 -124 -13 -38 -14 -40 -10 -11 8 53 50 109 98
131 40 18 81 19 1057 19 712 0 1027 -3 1055 -11z m-1611 -117 c2 -4 12 -56 22
-115 9 -59 20 -107 24 -107 3 0 12 35 19 78 24 150 21 142 47 142 30 0 30 0 0
-146 -13 -66 -27 -136 -30 -156 -6 -32 -11 -38 -32 -38 -31 0 -34 9 -72 191
-27 130 -28 145 -13 151 22 9 29 9 35 0z m386 -17 c0 -23 -3 -25 -51 -25 l-50
0 3 -42 c3 -43 3 -43 46 -46 37 -3 42 -6 42 -27 0 -21 -5 -24 -42 -27 l-43 -3
-3 -52 c-3 -57 -5 -56 61 -53 31 1 37 -2 37 -19 0 -19 -6 -21 -75 -21 l-75 0
0 164 0 165 33 4 c17 2 51 5 75 5 39 2 42 0 42 -23z m189 -62 c19 -45 38 -80
43 -77 4 3 8 41 8 85 0 78 1 80 23 77 22 -3 22 -5 25 -171 l2 -168 -26 3 c-23
3 -31 14 -62 90 -20 48 -39 85 -44 82 -4 -3 -8 -43 -8 -90 0 -83 0 -84 -25
-84 l-25 0 0 163 c0 90 3 167 7 171 4 4 16 6 27 4 15 -2 30 -25 55 -85z m437
8 c16 -44 34 -81 39 -83 6 -2 11 30 13 78 3 80 3 81 27 76 l25 -4 0 -164 c0
-89 -3 -165 -7 -167 -5 -3 -17 -1 -28 3 -14 5 -29 34 -50 94 -16 47 -33 86
-37 86 -5 0 -8 -40 -8 -90 0 -89 0 -90 -25 -90 -30 0 -39 26 -31 96 2 27 5 93
5 147 1 95 1 97 25 97 20 0 27 -11 52 -79z m352 63 c14 -10 22 -25 22 -45 0
-26 -3 -29 -30 -29 -25 0 -30 4 -30 25 0 18 -5 25 -19 25 -29 0 -32 -10 -32
-112 -1 -154 -2 -148 25 -148 16 0 26 7 30 23 10 39 7 67 -9 67 -9 0 -15 9
-15 25 0 23 4 25 40 25 l40 0 0 -73 c0 -92 -11 -108 -77 -114 -42 -5 -54 -2
-72 16 -19 19 -21 32 -21 156 0 122 2 137 20 155 25 25 95 27 128 4z m-1508
-14 c0 -17 -7 -20 -51 -20 l-50 0 3 -42 c3 -42 4 -43 39 -46 26 -2 38 -9 42
-22 7 -26 0 -30 -45 -30 l-38 0 0 -54 0 -55 47 -3 c49 -3 69 -23 35 -36 -11
-4 -48 -5 -81 -4 l-61 4 0 164 0 164 80 0 c73 0 80 -2 80 -20z m977 -142 c-2
-161 -2 -163 -24 -166 l-23 -3 0 165 0 166 24 0 25 0 -2 -162z m-1430 -65 c-2
-32 -3 -6 -3 57 0 63 1 89 3 58 2 -32 2 -84 0 -115z m57 -222 c26 -28 27 -32
8 -22 -23 12 -62 67 -62 86 0 6 6 1 12 -10 6 -11 25 -35 42 -54z m2143 -47
c-3 -3 -12 -4 -19 -1 -8 3 -5 6 6 6 11 1 17 -2 13 -5z m-1589 -11 c-81 -2
-216 -2 -300 0 -84 1 -18 3 147 3 165 0 234 -2 153 -3z m225 0 c-13 -2 -33 -2
-45 0 -13 2 -3 4 22 4 25 0 35 -2 23 -4z m75 0 c-10 -2 -26 -2 -35 0 -10 3 -2
5 17 5 19 0 27 -2 18 -5z m255 0 c-40 -2 -106 -2 -145 0 -40 1 -8 3 72 3 80 0
112 -2 73 -3z m930 0 c-29 -2 -77 -2 -105 0 -29 2 -6 3 52 3 58 0 81 -1 53 -3z"/>
<path d="M4205 3155 c-3 -8 -7 -22 -10 -30 -5 -17 -69 -51 -105 -56 -22 -4
-26 0 -31 36 l-6 40 -3 -35 c-2 -19 -3 -42 -4 -50 -1 -8 -24 -29 -51 -47 -54
-35 -70 -73 -52 -123 10 -29 0 -275 -14 -338 -5 -23 -35 -93 -67 -155 -32 -61
-68 -136 -80 -165 -22 -54 -36 -61 -56 -28 -8 14 -8 20 2 23 14 5 17 43 3 43
-6 0 -7 16 -4 35 4 23 2 35 -6 35 -6 0 -11 -8 -11 -19 0 -26 -26 -47 -34 -26
-3 8 -11 15 -18 15 -17 0 -40 -38 -32 -52 4 -7 3 -8 -4 -4 -8 5 -10 -2 -6 -24
6 -29 5 -30 -30 -30 -34 0 -37 2 -30 23 3 12 11 24 15 25 15 6 10 22 -7 22
-12 0 -15 7 -12 30 3 23 1 30 -9 26 -9 -4 -13 3 -13 19 0 30 -12 37 -45 29
-19 -5 -25 -13 -25 -33 0 -14 5 -33 10 -41 8 -13 10 -12 10 3 0 9 7 17 16 17
14 0 16 -8 10 -50 -10 -76 -20 -93 -27 -45 l-5 40 -13 -30 c-8 -20 -9 -31 -2
-33 13 -4 4 -48 -17 -80 -21 -32 -25 -21 -6 16 8 18 14 38 11 45 -3 7 -7 4
-12 -8 -4 -11 -23 -53 -42 -94 -34 -73 -40 -113 -7 -49 26 49 29 17 3 -39 -27
-60 -25 -58 -44 -43 -12 10 -15 10 -15 -2 0 -8 3 -18 6 -21 15 -15 10 -79 -8
-102 -19 -24 -24 -55 -10 -55 5 0 28 42 53 93 60 124 112 217 121 217 4 0 -46
-105 -110 -232 -65 -128 -135 -270 -156 -316 -20 -46 -43 -85 -51 -88 -15 -6
-8 -41 10 -48 13 -5 126 196 255 454 29 58 55 100 57 93 5 -13 -231 -483 -268
-534 -19 -27 -20 -32 -6 -47 8 -9 17 -26 20 -37 3 -14 5 -15 6 -4 1 21 31 33
45 19 8 -8 6 -19 -5 -38 -13 -23 -21 -27 -59 -27 l-45 0 -5 52 c-7 67 -20 80
-20 20 0 -26 -4 -47 -10 -47 -5 0 -10 9 -10 20 0 15 -7 20 -29 20 -16 0 -31 6
-34 13 -3 8 -11 3 -25 -13 -11 -14 -16 -28 -11 -31 12 -7 1 -39 -13 -39 -13 0
0 -52 15 -62 22 -14 52 -8 65 12 17 27 32 25 32 -5 0 -18 -5 -25 -19 -25 -10
0 -21 -7 -25 -15 -3 -9 -18 -15 -36 -15 -20 0 -29 -4 -24 -11 4 -7 25 -9 62
-4 49 6 54 5 48 -10 -3 -9 -6 -21 -6 -26 0 -5 -19 -9 -42 -9 -66 0 -118 -11
-118 -25 0 -14 -51 -127 -122 -272 l-42 -86 23 -18 c13 -11 31 -19 42 -19 10
0 22 -7 27 -16 7 -13 11 -10 22 18 7 18 38 76 69 128 42 72 57 90 59 73 2 -13
-26 -71 -74 -150 l-77 -128 1 -102 c1 -63 -2 -105 -9 -109 -6 -3 -24 4 -41 16
-34 25 -59 20 -55 -11 2 -17 -6 -24 -43 -35 -44 -13 -47 -17 -88 -101 l-43
-88 23 -15 c44 -29 78 -68 72 -84 -7 -19 10 -21 55 -5 28 10 31 15 33 57 l1
47 6 -46 6 -47 52 17 c41 13 59 25 83 59 17 24 34 41 37 38 3 -3 -6 -18 -21
-33 -15 -15 -23 -29 -17 -31 17 -6 101 36 101 50 0 10 2 10 9 -1 12 -19 216
81 363 178 l107 71 3 150 c2 83 2 150 0 150 -1 0 -36 -35 -77 -77 -69 -71 -75
-76 -75 -51 0 15 5 30 10 33 6 3 10 15 10 27 0 17 2 18 15 8 11 -9 15 -10 15
0 0 6 28 43 63 80 l62 69 5 -181 5 -182 90 76 c327 275 588 682 700 1093 87
320 105 714 44 1007 -10 51 -19 96 -19 99 0 4 -38 5 -85 3 -48 -1 -85 1 -85 7
0 5 36 9 80 9 46 0 80 4 80 10 0 30 -26 100 -37 100 -15 0 -18 -26 -3 -35 5
-3 7 -12 3 -20 -4 -11 -22 -15 -65 -15 l-59 0 3 73 3 72 53 3 c63 4 61 22 -3
22 l-43 0 -7 77 c-7 67 -6 78 11 90 10 7 12 13 6 13 -7 0 -12 7 -12 15 0 8 -5
15 -10 15 -6 0 -13 -7 -15 -15z m-3 -126 c1 -107 -24 -139 -108 -139 l-35 0 3
75 3 74 45 17 c25 9 54 23 64 30 11 8 21 12 23 10 3 -2 4 -32 5 -67z m-164
-76 c-2 -38 -8 -77 -13 -87 -6 -14 -5 -17 3 -12 9 5 12 -12 12 -63 0 -40 -4
-71 -10 -71 -5 0 -24 -25 -41 -55 -17 -30 -33 -55 -36 -55 -3 0 -2 28 2 63 4
34 7 114 6 178 l-2 117 33 26 c18 14 37 26 41 26 5 0 7 -30 5 -67z m140 -191
l-23 -24 24 7 c17 5 22 4 19 -6 -3 -8 -16 -15 -29 -15 -13 -1 -43 -5 -66 -9
l-43 -8 0 81 0 81 55 6 c30 4 60 14 67 23 11 13 13 5 16 -48 3 -54 0 -66 -20
-88z m-135 -59 c-20 -7 -15 -20 10 -28 21 -7 21 -7 2 -12 -10 -3 -21 0 -23 6
-2 6 -8 9 -13 5 -5 -3 -9 -1 -9 3 0 13 22 33 35 32 5 0 4 -3 -2 -6z m-61 -95
c-7 -7 -12 -8 -12 -2 0 6 3 14 7 17 3 4 9 5 12 2 2 -3 -1 -11 -7 -17z m48 -2
c0 -15 -150 -311 -238 -471 -46 -83 -72 -113 -72 -85 0 10 145 306 223 455 51
99 87 140 87 101z m-51 -213 c-69 -130 -106 -193 -115 -193 -3 0 3 15 14 33
10 17 36 64 57 102 67 125 96 175 102 175 2 0 -23 -53 -58 -117z m-288 -137
c-8 -10 -9 -16 -1 -21 13 -8 13 -55 0 -55 -5 0 -10 5 -10 11 0 6 -7 9 -14 6
-11 -4 -13 -1 -10 11 11 34 28 62 37 62 5 0 4 -6 -2 -14z m-91 -95 c-6 -13
-17 -17 -30 -14 -32 8 -24 33 10 33 27 0 29 -2 20 -19z m43 -6 c-3 -9 -8 -14
-10 -11 -3 3 -2 9 2 15 9 16 15 13 8 -4z m-133 -27 c0 -13 -23 -5 -28 10 -2 7
2 10 12 6 9 -3 16 -11 16 -16z m875 2 c3 -5 1 -10 -4 -10 -6 0 -11 5 -11 10 0
6 2 10 4 10 3 0 8 -4 11 -10z m-815 -38 c0 -14 -23 -32 -42 -32 -22 0 -14 27
10 33 28 8 32 7 32 -1z m-110 -16 c0 -3 -4 -8 -10 -11 -5 -3 -10 -1 -10 4 0 6
5 11 10 11 6 0 10 -2 10 -4z m62 -58 c-6 -6 -15 -8 -19 -4 -4 4 -1 11 7 16 19
12 27 3 12 -12z m-96 -14 c-4 -9 -9 -15 -11 -12 -3 3 -3 13 1 22 4 9 9 15 11
12 3 -3 3 -13 -1 -22z m46 -46 c-11 -18 -66 -125 -122 -237 -55 -112 -104
-201 -107 -198 -3 3 50 114 118 247 68 133 125 236 127 231 2 -6 -5 -26 -16
-43z m646 -124 c-2 -67 -7 -119 -13 -121 -10 -3 -12 47 -7 197 2 56 5 71 13
58 5 -10 8 -69 7 -134z m176 70 c8 -20 -2 -54 -14 -54 -5 0 -9 16 -8 35 1 37
12 46 22 19z m-235 -234 c-5 -17 -7 -2 -7 45 0 64 1 66 8 25 4 -25 4 -56 -1
-70z m-485 -193 c0 -142 -2 -157 -14 -157 -13 0 -13 210 0 244 5 14 11 26 12
26 2 0 3 -51 2 -113z m556 53 c0 -5 -5 -10 -11 -10 -5 0 -7 5 -4 10 3 6 8 10
11 10 2 0 4 -4 4 -10z m-897 -35 c-3 -9 -8 -14 -10 -11 -3 3 -2 9 2 15 9 16
15 13 8 -4z m907 -120 c0 -77 -4 -125 -10 -125 -5 0 -11 26 -11 58 -1 31 -2
82 -3 112 -2 61 2 80 15 80 5 0 9 -56 9 -125z m-682 89 c-11 -23 -13 -24 -19
-7 -3 10 -1 21 5 25 21 14 26 8 14 -18z m-33 -51 c-5 -10 -7 -23 -6 -30 2 -15
-12 -23 -26 -15 -9 5 -6 17 9 40 21 34 37 37 23 5z m102 -15 c-3 -8 -6 -5 -6
6 -1 11 2 17 5 13 3 -3 4 -12 1 -19z m550 -35 c-3 -10 -5 -4 -5 12 0 17 2 24
5 18 2 -7 2 -21 0 -30z m-57 -3 c0 -5 -5 -10 -11 -10 -5 0 -7 5 -4 10 3 6 8
10 11 10 2 0 4 -4 4 -10z m-657 -58 c-39 -54 -49 -62 -25 -21 12 20 19 39 16
42 -10 10 6 26 21 21 12 -5 9 -13 -12 -42z m128 -65 c-8 -8 -11 4 -10 44 l1
54 10 -44 c7 -30 6 -47 -1 -54z m556 41 c-2 -13 -4 -5 -4 17 -1 22 1 32 4 23
2 -10 2 -28 0 -40z m-590 -5 c-3 -10 -5 -4 -5 12 0 17 2 24 5 18 2 -7 2 -21 0
-30z m560 5 c-3 -7 -5 -2 -5 12 0 14 2 19 5 13 2 -7 2 -19 0 -25z m-831 -18
c16 -16 84 -22 84 -7 0 6 5 4 11 -6 8 -14 7 -23 -5 -36 -9 -10 -14 -25 -11
-33 3 -8 -1 -21 -10 -28 -13 -11 -14 -10 -9 4 5 13 -2 16 -45 16 l-51 0 20 20
c25 25 26 49 3 66 -10 7 -13 14 -7 14 5 0 15 -5 20 -10z m324 -44 c0 -1 -35
-50 -78 -108 -42 -57 -85 -116 -95 -129 -17 -23 -17 -23 -1 11 10 19 41 69 71
111 34 49 51 83 47 93 -5 12 -2 15 10 10 9 -3 16 -1 16 5 0 6 7 11 15 11 8 0
15 -2 15 -4z m630 0 c0 -2 -7 -9 -15 -16 -13 -11 -14 -10 -9 4 5 14 24 23 24
12z m-924 -101 c-7 -26 -36 -35 -36 -11 0 16 30 50 37 42 3 -3 3 -17 -1 -31z
m208 -80 c-4 -8 -8 -15 -10 -15 -2 0 -4 7 -4 15 0 8 4 15 10 15 5 0 7 -7 4
-15z m91 -112 c-103 -118 -205 -228 -205 -220 0 3 52 67 115 142 79 94 112
141 109 153 -5 14 -4 15 5 2 6 -8 11 -10 12 -5 1 6 3 15 4 20 2 6 4 15 5 20 1
6 6 0 12 -12 10 -20 3 -31 -57 -100z m-84 58 c6 10 8 7 6 -8 0 -12 -4 -20 -8
-17 -4 2 -10 -6 -12 -18 -2 -13 -5 -5 -5 17 0 22 2 34 5 26 5 -11 7 -11 14 0z
m149 -82 c0 -27 -18 -49 -115 -148 -63 -64 -121 -125 -129 -136 -15 -19 -15
-19 -16 11 0 20 9 39 26 55 14 13 71 75 126 137 55 61 102 112 104 112 2 0 4
-14 4 -31z m-180 -63 c0 -3 -4 -8 -10 -11 -5 -3 -10 -1 -10 4 0 6 5 11 10 11
6 0 10 -2 10 -4z m-332 -94 c0 -43 -3 -93 -8 -112 -6 -25 -8 -4 -9 78 -1 61 3
112 8 112 5 0 9 -35 9 -78z m382 74 c0 -2 -8 -10 -17 -17 -16 -13 -17 -12 -4
4 13 16 21 21 21 13z m-433 -193 c-2 -16 -4 -3 -4 27 0 30 2 43 4 28 2 -16 2
-40 0 -55z m363 -21 c0 -16 -12 -42 -30 -62 l-29 -35 -1 33 c0 33 32 92 51 92
5 0 9 -13 9 -28z m-320 -29 c0 -10 -15 -33 -32 -52 -20 -22 -28 -36 -20 -39
21 -7 13 -25 -8 -19 -16 4 -20 0 -21 -21 0 -15 -3 -21 -6 -14 -4 10 -11 8 -29
-9 -37 -35 -28 -11 14 40 21 25 51 65 67 88 34 49 35 49 35 26z m457 -40 c-3
-10 -5 -4 -5 12 0 17 2 24 5 18 2 -7 2 -21 0 -30z m-466 -113 c-8 -21 -10 -14
-10 36 -1 33 2 64 7 68 11 12 14 -77 3 -104z m19 -39 c0 -11 -60 -88 -115
-146 -56 -61 -33 -14 37 75 60 75 78 92 78 71z m-355 -86 c-30 -52 -46 -55
-19 -3 21 41 35 60 42 54 2 -3 -8 -26 -23 -51z m105 -100 c0 -8 -4 -15 -10
-15 -5 0 -7 7 -4 15 4 8 8 15 10 15 2 0 4 -7 4 -15z"/>
<path d="M141 3008 l-18 -43 26 -3 c35 -4 70 -65 61 -107 -5 -26 -7 -28 -13
-10 -7 16 -10 17 -17 5 -7 -10 -10 1 -10 38 0 98 -31 40 -32 -63 l-1 -40 -10
35 c-25 91 -23 89 -36 35 -12 -50 -11 -52 23 -110 46 -75 47 -97 1 -26 -18 29
-36 55 -38 57 -2 2 -10 -20 -17 -50 l-13 -55 59 -76 c75 -98 94 -127 94 -144
0 -22 -23 2 -92 95 -34 46 -65 84 -69 84 -16 0 -34 -218 -34 -415 1 -217 13
-330 55 -507 97 -406 309 -780 607 -1068 92 -90 233 -210 246 -210 3 0 8 10
10 23 3 17 5 15 6 -8 1 -32 17 -45 161 -134 67 -41 290 -151 308 -151 6 0 12
5 12 12 0 6 12 0 28 -14 26 -25 197 -87 208 -75 3 2 -2 22 -11 42 -24 58 -10
53 25 -8 22 -39 38 -56 56 -60 25 -4 26 -3 20 32 -3 20 -6 47 -7 61 0 14 -3
19 -6 12 -3 -7 -21 13 -43 46 -40 62 -54 72 -101 72 -27 0 -29 3 -30 38 l-2
37 -7 -40 c-8 -47 -13 -38 -10 23 1 33 -5 50 -28 80 -33 42 -66 102 -59 108 5
5 77 -88 96 -123 9 -17 21 -23 46 -23 18 0 36 4 39 9 3 5 -18 48 -47 97 -73
123 -128 224 -120 224 9 0 26 -25 85 -122 53 -90 78 -116 34 -37 -14 24 -39
80 -56 124 -18 44 -36 85 -42 92 -13 16 -148 16 -148 0 0 -8 -3 -7 -9 2 -5 7
-20 14 -34 13 -17 0 -24 5 -20 14 6 17 40 18 46 2 2 -7 7 -10 11 -6 4 3 3 14
-3 25 -5 10 -12 26 -15 35 -4 14 -11 15 -37 8 -19 -6 -37 -6 -43 -1 -15 12
-88 12 -80 0 3 -5 10 -7 15 -3 10 6 2 -65 -8 -76 -7 -8 -23 24 -23 47 0 30
-18 39 -24 11 -3 -13 -7 -32 -9 -43 -3 -11 -5 24 -6 78 l-1 97 45 0 c26 0 45
5 45 11 0 7 11 8 31 4 l31 -7 -29 43 c-38 57 -254 416 -323 539 -29 52 -97
165 -151 250 -104 166 -129 211 -129 232 0 13 20 -20 82 -132 17 -30 59 -98
93 -150 65 -100 143 -228 240 -395 32 -55 60 -94 63 -87 3 10 8 8 18 -5 7 -10
14 -22 14 -27 0 -6 -7 -1 -15 10 -8 10 -15 15 -15 10 0 -12 101 -175 114 -183
10 -7 -17 40 -61 107 -25 37 -30 55 -12 44 8 -5 8 -1 0 14 -16 30 -15 32 23
32 38 0 57 16 31 27 -10 3 -20 0 -25 -6 -5 -9 -14 -4 -29 17 -11 17 -21 34
-21 40 0 5 -9 12 -21 15 -16 4 -19 2 -15 -11 11 -31 -35 32 -53 73 -10 22 -35
75 -56 118 -21 43 -35 80 -32 84 3 3 25 -34 48 -81 42 -88 66 -115 31 -35 -61
137 -66 162 -26 114 19 -22 23 -24 15 -7 -7 12 -8 22 -3 22 4 0 16 -16 26 -36
9 -20 19 -34 22 -31 3 3 -4 24 -15 46 -11 23 -23 56 -27 74 l-7 32 23 -25 c17
-19 14 -11 -10 35 -18 33 -39 67 -46 76 -8 8 -14 26 -14 38 0 16 -5 21 -14 18
-8 -3 -21 2 -29 11 -21 23 -55 114 -50 130 3 7 -2 21 -11 31 -8 9 -22 37 -31
61 -9 24 -27 65 -42 90 -35 61 -105 170 -109 170 -6 0 9 -34 21 -50 15 -19 86
-146 102 -184 7 -15 10 -33 7 -38 -4 -6 0 -14 7 -19 15 -9 9 -19 -13 -23 -7
-1 -18 -5 -25 -9 -7 -4 -16 0 -22 10 -9 16 -10 15 -11 -7 0 -20 -2 -22 -10
-10 -8 13 -10 13 -10 -1 0 -31 24 -40 62 -24 46 18 60 7 83 -63 12 -38 14 -57
7 -64 -6 -6 -8 -24 -5 -41 5 -22 3 -28 -6 -23 -7 5 -18 0 -26 -10 -13 -17 -16
-17 -25 -4 -8 11 -9 8 -4 -15 9 -45 -78 86 -125 188 -72 156 -70 145 -62 247
2 35 2 35 23 -20 11 -30 24 -59 29 -64 9 -10 6 0 -35 127 -27 80 -32 132 -17
156 7 10 12 8 25 -10 9 -13 16 -17 16 -10 0 10 11 12 43 8 24 -3 51 -9 62 -13
15 -6 17 -4 11 11 -8 21 8 35 40 35 11 0 49 -12 84 -26 50 -20 73 -24 105 -19
22 3 69 8 104 11 35 3 79 11 97 19 17 7 62 16 98 20 36 4 66 11 66 16 0 5 7 9
16 9 8 0 13 4 10 9 -5 7 -64 -4 -128 -25 -39 -12 -15 14 27 30 25 10 45 21 45
25 0 3 -21 13 -47 20 -43 12 -90 27 -301 92 -71 22 -75 22 -68 10 11 -16 -5
-40 -37 -56 -44 -22 -52 -19 -52 22 0 21 -5 38 -14 41 -10 3 -11 -2 -6 -18 5
-17 4 -21 -5 -15 -8 5 -18 1 -27 -11 -12 -16 -15 -17 -24 -4 -5 8 -8 32 -5 52
2 23 -1 41 -9 48 -7 6 -18 24 -25 40 -14 33 -62 70 -68 52 -4 -14 -22 -15 -42
-2 -13 8 -12 11 5 24 20 14 19 14 -5 20 -58 12 -121 17 -132 10 -10 -6 -72
-12 -155 -14 -13 0 -23 -6 -23 -13 0 -8 -4 -7 -10 3 -13 20 -13 87 0 95 8 5 7
11 -1 21 -15 18 -33 18 -26 0 14 -35 -34 -22 -53 14 -10 18 -6 22 35 40 25 11
45 24 45 29 0 17 -36 31 -80 31 -39 0 -42 -2 -59 -42z m109 -186 c0 -15 -2
-15 -10 -2 -13 20 -13 33 0 25 6 -3 10 -14 10 -23z m-125 -194 c6 -16 18 -22
38 -19 4 0 7 -8 7 -19 0 -31 -29 -24 -48 11 -9 17 -27 47 -39 66 -13 18 -23
37 -23 41 0 11 59 -62 65 -80z m15 21 c0 -6 -4 -7 -10 -4 -5 3 -10 11 -10 16
0 6 5 7 10 4 6 -3 10 -11 10 -16z m537 -29 c16 -20 16 -30 0 -30 -12 0 -47 49
-47 65 0 9 30 -13 47 -35z m28 -50 c3 -5 1 -10 -4 -10 -6 0 -11 5 -11 10 0 6
2 10 4 10 3 0 8 -4 11 -10z m-495 -46 c0 -19 -16 -18 -24 2 -11 27 -7 37 9 24
8 -7 15 -19 15 -26z m40 -45 c12 -22 2 -25 -25 -6 -10 8 -15 19 -11 26 9 14
22 7 36 -20z m181 -35 c10 -38 14 -43 22 -29 8 15 14 10 43 -36 40 -64 40 -67
12 -71 -23 -3 -23 -3 10 -68 32 -61 33 -63 26 -25 -3 22 -10 46 -14 54 -4 8
-3 24 2 36 8 17 5 32 -11 63 -32 62 -29 72 24 72 l45 0 0 -65 c0 -55 -3 -65
-17 -66 -17 -1 -17 -2 0 -6 14 -4 17 -16 17 -80 0 -65 -2 -74 -15 -63 -9 7
-36 11 -72 8 l-58 -3 0 55 c0 30 3 63 8 72 4 9 3 19 -2 22 -5 3 -7 15 -4 26 3
11 0 20 -6 20 -6 0 -11 -10 -11 -22 -1 -23 -1 -23 -15 2 -8 14 -14 43 -15 65
0 39 9 85 16 85 2 0 9 -21 15 -46z m562 -21 c-7 -2 -19 -2 -25 0 -7 3 -2 5 12
5 14 0 19 -2 13 -5z m-623 -46 c0 -7 9 -18 20 -25 22 -13 27 -42 8 -42 -20 0
-48 32 -48 57 0 12 5 23 10 23 6 0 10 -6 10 -13z m-6 -103 c10 -25 7 -34 -10
-34 -9 0 -14 -7 -12 -17 4 -23 25 -28 31 -6 3 10 5 3 6 -14 1 -32 0 -33 -44
-33 -35 0 -47 4 -56 21 -8 17 -8 20 1 14 8 -5 11 -3 8 6 -3 8 -11 13 -17 11
-7 -1 -10 2 -6 8 3 6 11 7 17 4 6 -4 8 1 3 15 -5 16 -1 23 17 30 35 14 55 13
62 -5z m66 6 c0 -5 -4 -10 -9 -10 -6 0 -13 5 -16 10 -3 6 1 10 9 10 9 0 16 -4
16 -10z m-7 -60 c6 -30 6 -45 -2 -48 -20 -7 -26 3 -27 51 -1 60 17 58 29 -3z
m-153 36 c0 -11 -19 -15 -25 -6 -3 5 1 10 9 10 9 0 16 -2 16 -4z m656 -433
c-10 -10 -19 5 -10 18 6 11 8 11 12 0 2 -7 1 -15 -2 -18z m64 -131 c0 -15 -2
-15 -10 -2 -13 20 -13 33 0 25 6 -3 10 -14 10 -23z m-47 -134 c6 -22 5 -22 -8
-4 -17 22 -20 40 -6 32 5 -3 11 -16 14 -28z m32 -58 c9 -16 13 -30 11 -30 -3
0 -12 14 -21 30 -9 17 -13 30 -11 30 3 0 12 -13 21 -30z m-6 -306 c12 -19 16
-32 11 -29 -11 7 -43 65 -36 65 2 0 13 -16 25 -36z m40 -67 c12 -15 12 -17 -3
-11 -9 3 -16 13 -16 22 0 8 1 13 3 11 1 -2 9 -12 16 -22z m-178 -115 c76 -94
94 -121 45 -67 -50 54 -133 160 -118 151 6 -4 39 -41 73 -84z m233 32 c21 -31
36 -58 33 -60 -2 -2 -17 17 -34 44 -39 62 -45 72 -40 72 2 0 21 -25 41 -56z
m-392 -129 c11 -16 -3 -5 -31 25 -28 30 -56 64 -62 75 -13 26 67 -60 93 -100z
m275 93 c-3 -8 -6 -5 -6 6 -1 11 2 17 5 13 3 -3 4 -12 1 -19z m-292 -116 c-4
-5 -89 88 -93 102 -2 6 19 -14 46 -44 27 -30 49 -56 47 -58z m62 26 c-2 -18
-4 -6 -4 27 0 33 2 48 4 33 2 -15 2 -42 0 -60z m-127 -21 c0 -5 -4 -5 -10 -2
-5 3 -10 14 -10 23 0 15 2 15 10 2 5 -8 10 -19 10 -23z m290 12 c0 -6 -4 -7
-10 -4 -5 3 -10 11 -10 16 0 6 5 7 10 4 6 -3 10 -11 10 -16z m77 -310 c84 -86
153 -159 153 -163 0 -22 -111 87 -305 298 -80 87 -115 130 -115 139 0 7 26
-17 57 -53 32 -36 126 -135 210 -221z m-291 230 c27 -30 -7 -25 -35 5 -22 24
-22 24 -3 19 11 -3 28 -14 38 -24z m541 -9 c-1 -23 -6 -39 -12 -37 -14 5 -5
77 10 77 2 0 3 -18 2 -40z m83 14 c0 -14 -3 -15 -17 -3 -10 7 -20 15 -22 16
-2 2 5 3 17 3 14 0 22 -6 22 -16z m-306 -10 c5 -14 4 -15 -9 -4 -17 14 -19 20
-6 20 5 0 12 -7 15 -16z m-303 -66 c6 1 7 -3 3 -9 -5 -9 -2 -10 9 -6 12 4 25
-7 47 -39 16 -25 30 -48 30 -51 0 -13 -33 23 -41 45 -5 14 -13 22 -16 18 -8
-8 -113 94 -113 109 1 5 16 -8 35 -30 19 -22 40 -39 46 -37z m165 -97 c15 -19
29 -40 30 -48 1 -8 28 -40 59 -71 31 -31 51 -58 44 -61 -6 -2 17 -31 52 -64
35 -33 57 -56 48 -51 -20 11 -95 81 -124 114 -11 13 -14 20 -6 15 9 -5 12 -3
9 6 -3 8 -13 14 -24 14 -12 0 -20 8 -22 23 -2 16 -14 27 -34 34 -25 9 -29 15
-25 36 4 22 -8 41 -67 107 -39 44 -78 89 -86 100 -16 22 102 -102 146 -154z
m106 137 c-9 -9 -12 -7 -12 12 0 19 3 21 12 12 9 -9 9 -15 0 -24z m49 -39 c8
-15 8 -19 0 -15 -7 5 -11 -2 -11 -16 0 -13 -5 -30 -10 -38 -7 -12 -10 -8 -10
15 0 31 9 75 16 75 2 0 8 -10 15 -21z m477 -24 c-3 -3 -9 2 -12 12 -6 14 -5
15 5 6 7 -7 10 -15 7 -18z m-598 -11 c0 -8 -5 -12 -10 -9 -6 4 -8 11 -5 16 9
14 15 11 15 -7z m27 -36 c-3 -8 -6 -5 -6 6 -1 11 2 17 5 13 3 -3 4 -12 1 -19z
m43 -29 c0 -17 -4 -28 -10 -24 -5 3 -10 17 -10 31 0 13 5 24 10 24 6 0 10 -14
10 -31z m40 -25 c0 -13 -4 -24 -10 -24 -5 0 -10 14 -10 31 0 17 4 28 10 24 6
-3 10 -17 10 -31z m-103 -136 c-3 -8 -6 -5 -6 6 -1 11 2 17 5 13 3 -3 4 -12 1
-19z m573 -118 c0 -43 -3 -50 -20 -50 -11 0 -20 5 -20 10 0 6 5 10 11 10 6 0
9 7 5 15 -3 8 -1 15 4 15 6 0 10 11 10 25 0 14 2 25 5 25 3 0 5 -22 5 -50z
m-19 -108 c7 -51 -2 -55 -17 -7 -6 19 -7 32 -2 29 4 -3 8 -1 8 5 0 5 -5 12
-10 14 -6 3 -5 4 2 3 7 -1 16 -21 19 -44z m93 -37 c-6 -16 -24 -21 -24 -7 0
11 11 22 21 22 5 0 6 -7 3 -15z"/>
<path d="M490 2208 c0 -9 5 -20 10 -23 13 -8 13 5 0 25 -8 13 -10 13 -10 -2z"/>
<path d="M834 2726 c-11 -8 -31 -16 -44 -18 l-25 -4 28 -12 c50 -21 72 -16 74
18 2 34 -3 36 -33 16z"/>
<path d="M760 2660 c0 -5 5 -10 10 -10 6 0 10 5 10 10 0 6 -4 10 -10 10 -5 0
-10 -4 -10 -10z"/>
<path d="M1355 2530 c-3 -4 23 -12 58 -18 58 -9 77 -8 66 3 -9 8 -120 22 -124
15z"/>
<path d="M1526 2490 c7 -7 40 -13 75 -15 l64 -4 -60 9 c-33 6 -67 12 -75 16
-11 4 -12 2 -4 -6z"/>
<path d="M2430 2490 c0 -13 50 -13 70 0 11 7 4 10 -27 10 -24 0 -43 -4 -43
-10z"/>
<path d="M1983 2474 c11 -11 68 -14 62 -4 -3 6 -20 10 -37 10 -17 0 -29 -3
-25 -6z"/>
<path d="M2318 2473 c7 -3 16 -2 19 1 4 3 -2 6 -13 5 -11 0 -14 -3 -6 -6z"/>
<path d="M690 2201 c0 -5 5 -13 10 -16 6 -3 10 -2 10 4 0 5 -4 13 -10 16 -5 3
-10 2 -10 -4z"/>
<path d="M711 2140 c0 -8 4 -22 9 -30 12 -18 12 -2 0 25 -6 13 -9 15 -9 5z"/>
<path d="M640 2093 c0 -4 5 -15 10 -23 8 -13 10 -13 10 2 0 9 -4 20 -10 23 -5
3 -10 3 -10 -2z"/>
<path d="M685 2010 c9 -16 18 -30 21 -30 2 0 -2 14 -11 30 -9 17 -18 30 -21
30 -2 0 2 -13 11 -30z"/>
<path d="M753 1993 c-17 -6 -16 -23 1 -23 14 0 20 -51 6 -60 -4 -3 0 -22 9
-43 l16 -38 -1 83 c-2 80 -6 92 -31 81z"/>
<path d="M3340 1980 c0 -5 5 -10 10 -10 6 0 10 5 10 10 0 6 -4 10 -10 10 -5 0
-10 -4 -10 -10z"/>
<path d="M720 1951 c5 -11 15 -23 21 -27 6 -3 3 5 -6 20 -20 30 -30 35 -15 7z"/>
<path d="M3261 1800 c-18 -34 -31 -63 -29 -65 6 -7 70 105 66 116 -2 5 -18
-18 -37 -51z"/>
<path d="M1040 1675 c0 -17 94 -194 101 -190 4 3 -6 31 -23 63 -17 31 -40 74
-50 95 -16 33 -28 46 -28 32z"/>
<path d="M3250 1655 c-6 -8 -10 -19 -8 -26 2 -6 9 0 16 15 13 29 10 33 -8 11z"/>
<path d="M1037 1495 c9 -19 18 -33 21 -31 4 5 -26 66 -33 66 -3 0 3 -16 12
-35z"/>
<path d="M1052 1518 c2 -5 8 -9 13 -9 5 0 11 4 13 9 1 5 -4 9 -13 9 -9 0 -14
-4 -13 -9z"/>
<path d="M1500 1490 c-13 -9 -13 -11 0 -20 10 -6 16 -6 18 0 7 20 -3 30 -18
20z"/>
<path d="M1066 1437 c3 -10 9 -15 12 -12 3 3 0 11 -7 18 -10 9 -11 8 -5 -6z"/>
<path d="M1051 1420 c14 -31 19 -36 19 -24 0 6 -7 19 -16 30 -14 18 -14 18 -3
-6z"/>
<path d="M1710 1430 c-9 -6 -10 -10 -3 -10 6 0 15 5 18 10 8 12 4 12 -15 0z"/>
<path d="M3211 1314 c0 -11 3 -14 6 -6 3 7 2 16 -1 19 -3 4 -6 -2 -5 -13z"/>
<path d="M1221 1050 c14 -31 19 -36 19 -24 0 6 -7 19 -16 30 -14 18 -14 18 -3
-6z"/>
<path d="M2935 1010 c-14 -27 -23 -50 -20 -50 2 0 16 23 30 50 14 28 23 50 20
50 -2 0 -16 -22 -30 -50z"/>
<path d="M1440 883 c-8 -3 -23 -12 -32 -21 -10 -8 -24 -12 -33 -9 -10 4 -15 1
-15 -11 1 -43 41 -59 110 -42 66 16 78 54 24 79 -27 12 -31 12 -54 4z"/>
</g>
</svg>
